<svg t="1653030772416" class="icon" viewBox="0 0 1024 1024" version="1.1" xmlns="http://www.w3.org/2000/svg" p-id="4122" width="20" height="20">
<g transform="scale(0.02)">
<path d="M965.64 790.729H862.686V689.171c0-21.114-17.345-38.218-38.751-38.218s-38.75 17.104-38.75 38.218V790.73H682.236c-21.406 0-38.746 17.105-38.746 38.221 0 10.555 4.336 20.112 11.347 27.029 7.01 6.914 16.696 11.197 27.399 11.197h102.946V968.72c0 10.557 4.34 20.11 11.349 27.024 7.013 6.916 16.701 11.19 27.404 11.19 21.406 0 38.749-17.102 38.749-38.214V867.176H965.64c21.406 0 38.746-17.11 38.746-38.223s-17.34-38.224-38.746-38.224z m-253.1-65.405a38.759 38.759 0 0 0 9.245-12.1c9.205-19.059 1.022-41.85-18.296-50.982-9.095-4.28-20.533-8.607-33.833-12.698 69.494-51.667 125.163-148.629 125.163-326.678 0-38.486-7.189-76.078-21.344-111.684-7.795-19.674-30.349-29.307-50.218-21.619-19.906 7.692-29.743 29.865-21.91 49.538 10.598 26.692 15.968 54.874 15.968 83.765 0 176.742-56.128 275.482-171.118 299.812v-11.49H385.735c-89.59-36.822-133.442-132.102-133.442-288.322 0-126.47 104.298-229.35 232.513-229.35 37.88 0 73.985 8.7 107.249 25.797a220.472 220.472 0 0 1 19.223 11.086c17.902 11.609 41.894 6.682 53.663-10.975 11.73-17.657 6.774-41.36-11.126-52.933-8.364-5.412-16.993-10.374-25.922-14.97-43.826-22.546-93.324-34.454-143.087-34.454-170.94 0-310.017 137.185-310.017 305.8 0 154.16 41.734 247.53 98.04 303.347C147.116 669.87 47.908 797.35 22.566 856.684c-8.045 18.926 0.918 40.683 20.055 48.662 19.1 7.83 41.213-0.909 49.293-19.8 23.51-55.119 140.972-200.094 266.224-200.094h8.78c41.451 15.198 83.195 19.658 117.889 19.658 18.662 0 39.364-1.29 60.964-4.849l0.761 3.993c53.438 4.133 100.16 15.986 123.568 27.016 14.496 6.815 31.153 3.95 42.44-5.946z" p-id="4123"></path>
</g>
</svg>