<svg xmlns="http://www.w3.org/2000/svg" width="23" height="25.108" viewBox="0 0 23 25.108">
  <g id="组_2131" data-name="组 2131" transform="translate(-89.892 -596.066)">
    <path id="减去_6" data-name="减去 6" d="M11.5,23A11.5,11.5,0,0,1,3.368,3.368,11.5,11.5,0,0,1,21.342,17.457a4.791,4.791,0,0,0-6.618.337l3.4-13.588L3.535,10.588l4.2,3.148,8.557-7.7L9.649,15.173l4.494,3.372a4.8,4.8,0,0,0-.415,4.241A11.651,11.651,0,0,1,11.5,23ZM7.048,14.177,6.836,18.1l2.9-1.914L7.048,14.177Z" transform="translate(89.892 596.066)"/>
    <path id="正确_通过_对勾_jurassic" data-name="正确,通过,对勾_jurassic" d="M68,64a4,4,0,1,0,4,4A4,4,0,0,0,68,64Zm-.6,5.6,0,0,0,0L65.8,68l.4-.4,1.2,1.2,2.4-2.4.4.4Z" transform="translate(40.212 549.174)"/>
  </g>
</svg>