<svg xmlns="http://www.w3.org/2000/svg" width="32.002" height="32.002" viewBox="0 0 32.002 32.002">
  <g id="USDT_2_" data-name="USDT (2)" transform="translate(-4.174 -2.369)">
    <path id="路径_1" data-name="路径 1" d="M36.176,18.37a16,16,0,1,1-16-16,16,16,0,0,1,16,16" fill="#1ba27a"/>
    <path id="路径_2" data-name="路径 2" d="M285.482,259.266H270.331v3.658h5.747V268.3h3.658v-5.376h5.747Z" transform="translate(-257.797 -248.828)" fill="#fff"/>
    <path id="路径_3" data-name="路径 3" d="M214.563,455.121c-4.754,0-8.608-.752-8.608-1.681s3.854-1.681,8.608-1.681,8.608.753,8.608,1.681-3.854,1.681-8.608,1.681m9.665-1.4c0-1.2-4.327-2.167-9.665-2.167s-9.666.97-9.666,2.167c0,1.054,3.356,1.932,7.8,2.127v7.718h3.658V455.85c4.481-.188,7.871-1.07,7.871-2.13" transform="translate(-194.419 -435.076)" fill="#fff"/>
  </g>
</svg>
